# xmcd
#
# Track frame offsets:
#	150
#	9017
#	19628
#	33238
#	44875
#	56978
#	66899
#	80485
#	95586
#	105463
#
# Disc length: 1576 seconds
#
# Revision: 0
# Processed by: cddbd v1.5.1PL0 Copyright (c) Steve Scherf et al.
# Submitted via: dBpowerAMP V4.0
#
DISCID=7a06260a
DTITLE=Patsy Cline - Anytime
DYEAR=2005
DGENRE=Country
TTITLE0=Anytime
TTITLE1=Your Cheatin' Heart
TTITLE2=She's Got You
TTITLE3=Walkin' After Midnight
TTITLE4=Always
TTITLE5=Strange
TTITLE6=So Wrong
TTITLE7=The Wayward Wind
TTITLE8=Heartaches
TTITLE9=I Fall To Pieces [Duet With Jim Reeves]
EXTD=
EXTT0=
EXTT1=
EXTT2=
EXTT3=
EXTT4=
EXTT5=
EXTT6=
EXTT7=
EXTT8=
EXTT9=
PLAYORDER=
